# xmcd
#
# Track frame offsets:
#	150
#	16350
#	31425
#	43350
#	59025
#	79275
#	95175
#	110475
#	127875
#	142050
#	156600
#	168000
#	181500
#	197625
#	212250
#	227025
#	238425
#	256650
#
# Disc length: 3687 seconds
#
# Revision: 2
# Processed by: cddbd v1.5.2PL0 Copyright (c) Steve Scherf et al.
# Submitted via: audiograbber 1.83.01
#
DISCID=010e6512
DTITLE=Various Artist - CSZ201
DYEAR=1900
DGENRE=Karaoke
TTITLE0=Dixie Chicks - Ready To Run
TTITLE1=Montgomery Gentry - Lonely and Gone
TTITLE2=Lee Ann Womack - Now You See Me
TTITLE3=Shania Twain - You've Got A Way
TTITLE4=Alan Jackson - Little Man
TTITLE5=Susan Ashton - You're Lucky I Love You
TTITLE6=Steve Wariner - I'm Already Taken
TTITLE7=Vince Gill and Patty Loveless - My Kind Of Woman
TTITLE8=Andy Griggs - I'll Go Crazy
TTITLE9=Aaron Tippin - Her
TTITLE10=Julie Reeves - Trouble Is A Woman
TTITLE11=Warren Brothers - She Wants To Rock
TTITLE12=Sherrie Austin - Never Been Kissed
TTITLE13=Alabama - God Must Have Spent A Little More Time
TTITLE14=Jo Dee Messina - Lesson In Leavin
TTITLE15=Dwight Yoakum - Crazy Little Thing Called Love
TTITLE16=Faith Hill - The Secret Of Life
TTITLE17=Trisha Yearwood - Ill Still Love You More
EXTD=
EXTT0=
EXTT1=
EXTT2=
EXTT3=
EXTT4=
EXTT5=
EXTT6=
EXTT7=
EXTT8=
EXTT9=
EXTT10=
EXTT11=
EXTT12=
EXTT13=
EXTT14=
EXTT15=
EXTT16=
EXTT17=
PLAYORDER=
